<svg xmlns="http://www.w3.org/2000/svg" width="375" viewBox="0 0 375 375" height="375" version="1.0"><defs><clipPath id="a"><path d="M 57.550781 134.117188 L 99.550781 134.117188 L 99.550781 216.617188 L 57.550781 216.617188 Z M 57.550781 134.117188"/></clipPath></defs><path fill="#FFF" d="M-37.5 -37.5H412.5V412.5H-37.5z"/><path fill="#FFF" d="M-37.5 -37.5H412.5V412.5H-37.5z"/><path d="M-37.5 -37.5H412.5V412.5H-37.5z"/><g fill="#FFF"><g><g><path d="M 26.234375 -13.296875 C 26.234375 -8.253906 24.8125 -4.738281 21.96875 -2.75 C 19.34375 -0.914062 15.742188 0 11.171875 0 L 0.765625 0 L 0.765625 -0.703125 L 3.203125 -0.703125 L 3.203125 -25.015625 L 0.765625 -25.015625 L 0.765625 -25.71875 L 12.125 -25.71875 C 16.820312 -25.71875 20.347656 -24.753906 22.703125 -22.828125 C 25.054688 -20.910156 26.234375 -17.734375 26.234375 -13.296875 Z M 10.359375 -0.703125 L 11.75 -0.703125 C 14.226562 -0.703125 16 -1.578125 17.0625 -3.328125 C 18.125 -5.078125 18.65625 -8.007812 18.65625 -12.125 L 18.65625 -14.25 C 18.65625 -19.757812 17.601562 -23.078125 15.5 -24.203125 C 14.5 -24.742188 13.078125 -25.015625 11.234375 -25.015625 L 10.359375 -25.015625 Z M 10.359375 -0.703125" transform="translate(103.767 216.163)"/></g></g></g><g fill="#FFF"><g><g><path d="M 10.03125 0.375 C 6.875 0.375 4.503906 -0.4375 2.921875 -2.0625 C 1.335938 -3.695312 0.546875 -5.960938 0.546875 -8.859375 C 0.546875 -11.765625 1.429688 -13.988281 3.203125 -15.53125 C 4.984375 -17.082031 7.242188 -17.859375 9.984375 -17.859375 C 15.546875 -17.859375 18.21875 -15.066406 18 -9.484375 L 7.640625 -9.484375 L 7.640625 -8.046875 C 7.640625 -5.640625 7.945312 -3.820312 8.5625 -2.59375 C 9.175781 -1.375 10.238281 -0.765625 11.75 -0.765625 C 14.59375 -0.765625 16.457031 -2.285156 17.34375 -5.328125 L 18 -5.21875 C 17.53125 -3.457031 16.691406 -2.082031 15.484375 -1.09375 C 14.273438 -0.113281 12.457031 0.375 10.03125 0.375 Z M 7.671875 -10.21875 L 11.46875 -10.21875 L 11.46875 -12.015625 C 11.46875 -13.992188 11.347656 -15.34375 11.109375 -16.0625 C 10.878906 -16.789062 10.414062 -17.15625 9.71875 -17.15625 C 9.019531 -17.15625 8.503906 -16.769531 8.171875 -16 C 7.835938 -15.226562 7.671875 -13.898438 7.671875 -12.015625 Z M 7.671875 -10.21875" transform="translate(131.503 216.163)"/></g></g></g><g fill="#FFF"><g><g><path d="M 13.78125 -9.875 C 13.78125 -12.40625 13.65625 -14.101562 13.40625 -14.96875 C 13.164062 -15.832031 12.6875 -16.265625 11.96875 -16.265625 C 11.257812 -16.265625 10.625 -15.804688 10.0625 -14.890625 C 9.5 -13.972656 9.21875 -12.742188 9.21875 -11.203125 L 9.21875 -4.484375 C 9.21875 -3.429688 9.425781 -2.535156 9.84375 -1.796875 C 10.257812 -1.066406 10.867188 -0.703125 11.671875 -0.703125 C 12.484375 -0.703125 13.035156 -1.238281 13.328125 -2.3125 C 13.628906 -3.394531 13.78125 -5.28125 13.78125 -7.96875 Z M 9.140625 -17.484375 L 9.140625 -14.578125 C 10.097656 -16.765625 11.789062 -17.859375 14.21875 -17.859375 C 16.320312 -17.859375 17.953125 -17.097656 19.109375 -15.578125 C 20.273438 -14.054688 20.859375 -11.753906 20.859375 -8.671875 C 20.859375 -5.585938 20.226562 -3.304688 18.96875 -1.828125 C 17.707031 -0.359375 15.816406 0.375 13.296875 0.375 C 12.117188 0.375 11.234375 0.226562 10.640625 -0.0625 C 10.054688 -0.363281 9.582031 -0.820312 9.21875 -1.4375 L 9.21875 8.078125 L 13.953125 8.078125 L 13.953125 8.75 L 0.375 8.75 L 0.375 8.078125 L 2.390625 8.078125 L 2.390625 -16.828125 L 0.4375 -16.828125 L 0.4375 -17.484375 Z M 9.140625 -17.484375" transform="translate(150.46 216.163)"/></g></g></g><g fill="#FFF"><g><g><path d="M 9.1875 -8.625 L 10.25 -8.625 L 10.25 -11.46875 C 10.25 -13.789062 10.117188 -15.347656 9.859375 -16.140625 C 9.609375 -16.941406 9.113281 -17.34375 8.375 -17.34375 C 7.9375 -17.34375 7.539062 -17.222656 7.1875 -16.984375 C 6.832031 -16.753906 6.65625 -16.4375 6.65625 -16.03125 C 6.65625 -15.625 6.726562 -15.210938 6.875 -14.796875 L 7.78125 -14.796875 C 7.976562 -14.285156 8.078125 -13.664062 8.078125 -12.9375 C 8.078125 -12.21875 7.769531 -11.59375 7.15625 -11.0625 C 6.550781 -10.539062 5.78125 -10.28125 4.84375 -10.28125 C 2.738281 -10.28125 1.6875 -11.296875 1.6875 -13.328125 C 1.6875 -16.347656 4.25 -17.859375 9.375 -17.859375 C 12.28125 -17.859375 14.289062 -17.359375 15.40625 -16.359375 C 16.519531 -15.367188 17.078125 -13.550781 17.078125 -10.90625 L 17.078125 -3.453125 C 17.078125 -2.179688 17.429688 -1.546875 18.140625 -1.546875 C 18.972656 -1.546875 19.460938 -2.804688 19.609375 -5.328125 L 20.171875 -5.296875 C 20.066406 -3.140625 19.660156 -1.65625 18.953125 -0.84375 C 18.242188 -0.03125 17.082031 0.375 15.46875 0.375 C 12.53125 0.375 10.835938 -0.53125 10.390625 -2.34375 C 10.078125 -1.414062 9.601562 -0.726562 8.96875 -0.28125 C 8.332031 0.15625 7.398438 0.375 6.171875 0.375 C 2.546875 0.375 0.734375 -1.109375 0.734375 -4.078125 C 0.734375 -5.816406 1.425781 -7.007812 2.8125 -7.65625 C 4.195312 -8.300781 6.320312 -8.625 9.1875 -8.625 Z M 7.71875 -4.109375 C 7.71875 -2.835938 7.785156 -2.019531 7.921875 -1.65625 C 8.054688 -1.289062 8.3125 -1.109375 8.6875 -1.109375 C 9.0625 -1.109375 9.414062 -1.414062 9.75 -2.03125 C 10.082031 -2.65625 10.25 -3.519531 10.25 -4.625 L 10.25 -8.046875 L 9.984375 -8.046875 C 8.472656 -8.046875 7.71875 -6.929688 7.71875 -4.703125 Z M 7.71875 -4.109375" transform="translate(172.061 216.163)"/></g></g></g><g fill="#FFF"><g><g><path d="M 12.640625 -16.453125 C 11.734375 -16.453125 10.9375 -15.863281 10.25 -14.6875 C 9.5625 -13.519531 9.21875 -12.125 9.21875 -10.5 L 9.21875 -0.65625 L 11.828125 -0.65625 L 11.828125 0 L 0.375 0 L 0.375 -0.65625 L 2.390625 -0.65625 L 2.390625 -16.828125 L 0.375 -16.828125 L 0.375 -17.484375 L 9.21875 -17.484375 L 9.21875 -13.953125 C 9.539062 -15.203125 10.15625 -16.164062 11.0625 -16.84375 C 11.96875 -17.519531 12.992188 -17.859375 14.140625 -17.859375 C 15.296875 -17.859375 16.234375 -17.53125 16.953125 -16.875 C 17.671875 -16.226562 18.03125 -15.3125 18.03125 -14.125 C 18.03125 -12.9375 17.757812 -12.023438 17.21875 -11.390625 C 16.6875 -10.753906 15.863281 -10.4375 14.75 -10.4375 C 13.632812 -10.4375 12.8125 -10.800781 12.28125 -11.53125 C 11.757812 -12.269531 11.691406 -13.285156 12.078125 -14.578125 L 13.40625 -14.578125 C 14.019531 -15.828125 13.765625 -16.453125 12.640625 -16.453125 Z M 12.640625 -16.453125" transform="translate(192.23 216.163)"/></g></g></g><g fill="#FFF"><g><g><path d="M 2.203125 -5.25 L 2.203125 -16.828125 L 0.1875 -16.828125 L 0.1875 -17.484375 L 2.203125 -17.484375 L 2.203125 -22.21875 L 9.03125 -23.90625 L 9.03125 -17.484375 L 13.8125 -17.484375 L 13.8125 -16.828125 L 9.03125 -16.828125 L 9.03125 -4.4375 C 9.03125 -3.289062 9.144531 -2.445312 9.375 -1.90625 C 9.613281 -1.375 10.097656 -1.109375 10.828125 -1.109375 C 11.566406 -1.109375 12.210938 -1.472656 12.765625 -2.203125 C 13.316406 -2.941406 13.675781 -3.945312 13.84375 -5.21875 L 14.46875 -5.140625 C 14.269531 -3.453125 13.726562 -2.109375 12.84375 -1.109375 C 11.96875 -0.117188 10.515625 0.375 8.484375 0.375 C 6.453125 0.375 4.894531 -0.03125 3.8125 -0.84375 C 2.738281 -1.65625 2.203125 -3.125 2.203125 -5.25 Z M 2.203125 -5.25" transform="translate(210.415 216.163)"/></g></g></g><g fill="#FFF"><g><g><path d="M 0.375 -17.484375 L 9.21875 -17.484375 L 9.21875 -14.109375 C 10.03125 -16.609375 11.8125 -17.859375 14.5625 -17.859375 C 17.320312 -17.859375 18.992188 -16.535156 19.578125 -13.890625 C 20.429688 -16.535156 22.234375 -17.859375 24.984375 -17.859375 C 28.578125 -17.859375 30.375 -15.8125 30.375 -11.71875 L 30.375 -0.65625 L 32.4375 -0.65625 L 32.4375 0 L 22.265625 0 L 22.265625 -0.65625 L 23.546875 -0.65625 L 23.546875 -12.59375 C 23.546875 -14.457031 23.382812 -15.550781 23.0625 -15.875 C 22.914062 -16.019531 22.722656 -16.09375 22.484375 -16.09375 C 21.773438 -16.09375 21.148438 -15.613281 20.609375 -14.65625 C 20.066406 -13.695312 19.796875 -12.484375 19.796875 -11.015625 L 19.796875 -0.65625 L 21.125 -0.65625 L 21.125 0 L 11.6875 0 L 11.6875 -0.65625 L 12.96875 -0.65625 L 12.96875 -12.59375 C 12.96875 -14.457031 12.804688 -15.550781 12.484375 -15.875 C 12.335938 -16.019531 12.144531 -16.09375 11.90625 -16.09375 C 11.21875 -16.09375 10.597656 -15.570312 10.046875 -14.53125 C 9.492188 -13.488281 9.21875 -12.242188 9.21875 -10.796875 L 9.21875 -0.65625 L 10.546875 -0.65625 L 10.546875 0 L 0.375 0 L 0.375 -0.65625 L 2.390625 -0.65625 L 2.390625 -16.828125 L 0.375 -16.828125 Z M 0.375 -17.484375" transform="translate(224.889 216.163)"/></g></g></g><g fill="#FFF"><g><g><path d="M 10.03125 0.375 C 6.875 0.375 4.503906 -0.4375 2.921875 -2.0625 C 1.335938 -3.695312 0.546875 -5.960938 0.546875 -8.859375 C 0.546875 -11.765625 1.429688 -13.988281 3.203125 -15.53125 C 4.984375 -17.082031 7.242188 -17.859375 9.984375 -17.859375 C 15.546875 -17.859375 18.21875 -15.066406 18 -9.484375 L 7.640625 -9.484375 L 7.640625 -8.046875 C 7.640625 -5.640625 7.945312 -3.820312 8.5625 -2.59375 C 9.175781 -1.375 10.238281 -0.765625 11.75 -0.765625 C 14.59375 -0.765625 16.457031 -2.285156 17.34375 -5.328125 L 18 -5.21875 C 17.53125 -3.457031 16.691406 -2.082031 15.484375 -1.09375 C 14.273438 -0.113281 12.457031 0.375 10.03125 0.375 Z M 7.671875 -10.21875 L 11.46875 -10.21875 L 11.46875 -12.015625 C 11.46875 -13.992188 11.347656 -15.34375 11.109375 -16.0625 C 10.878906 -16.789062 10.414062 -17.15625 9.71875 -17.15625 C 9.019531 -17.15625 8.503906 -16.769531 8.171875 -16 C 7.835938 -15.226562 7.671875 -13.898438 7.671875 -12.015625 Z M 7.671875 -10.21875" transform="translate(257.512 216.163)"/></g></g></g><g fill="#FFF"><g><g><path d="M 0.4375 -17.484375 L 9.296875 -17.484375 L 9.296875 -14.109375 C 9.679688 -15.234375 10.28125 -16.140625 11.09375 -16.828125 C 11.90625 -17.515625 13.128906 -17.859375 14.765625 -17.859375 C 18.566406 -17.859375 20.46875 -15.8125 20.46875 -11.71875 L 20.46875 -0.65625 L 22.515625 -0.65625 L 22.515625 0 L 12.125 0 L 12.125 -0.65625 L 13.625 -0.65625 L 13.625 -12.59375 C 13.625 -14.0625 13.523438 -15.007812 13.328125 -15.4375 C 13.140625 -15.875 12.785156 -16.09375 12.265625 -16.09375 C 11.484375 -16.09375 10.789062 -15.578125 10.1875 -14.546875 C 9.59375 -13.515625 9.296875 -12.265625 9.296875 -10.796875 L 9.296875 -0.65625 L 10.875 -0.65625 L 10.875 0 L 0.4375 0 L 0.4375 -0.65625 L 2.46875 -0.65625 L 2.46875 -16.828125 L 0.4375 -16.828125 Z M 0.4375 -17.484375" transform="translate(276.468 216.163)"/></g></g></g><g fill="#FFF"><g><g><path d="M 2.203125 -5.25 L 2.203125 -16.828125 L 0.1875 -16.828125 L 0.1875 -17.484375 L 2.203125 -17.484375 L 2.203125 -22.21875 L 9.03125 -23.90625 L 9.03125 -17.484375 L 13.8125 -17.484375 L 13.8125 -16.828125 L 9.03125 -16.828125 L 9.03125 -4.4375 C 9.03125 -3.289062 9.144531 -2.445312 9.375 -1.90625 C 9.613281 -1.375 10.097656 -1.109375 10.828125 -1.109375 C 11.566406 -1.109375 12.210938 -1.472656 12.765625 -2.203125 C 13.316406 -2.941406 13.675781 -3.945312 13.84375 -5.21875 L 14.46875 -5.140625 C 14.269531 -3.453125 13.726562 -2.109375 12.84375 -1.109375 C 11.96875 -0.117188 10.515625 0.375 8.484375 0.375 C 6.453125 0.375 4.894531 -0.03125 3.8125 -0.84375 C 2.738281 -1.65625 2.203125 -3.125 2.203125 -5.25 Z M 2.203125 -5.25" transform="translate(299.098 216.163)"/></g></g></g><g fill="#FFBD59"><g><g><path d="M 20.125 -25.71875 L 29.9375 -25.71875 L 29.9375 -25.015625 L 27.921875 -25.015625 L 27.921875 -0.703125 L 29.9375 -0.703125 L 29.9375 0 L 18.734375 0 L 18.734375 -0.703125 L 20.75 -0.703125 L 20.75 -23.65625 L 20.609375 -23.65625 L 15.09375 0 L 10.5 0 L 4.046875 -23.765625 L 3.890625 -23.765625 L 3.890625 -0.703125 L 5.921875 -0.703125 L 5.921875 0 L 0.921875 0 L 0.921875 -0.703125 L 2.9375 -0.703125 L 2.9375 -25.015625 L 0.921875 -25.015625 L 0.921875 -25.71875 L 10.84375 -25.71875 L 15.71875 -6.796875 Z M 20.125 -25.71875" transform="translate(103.767 186.918)"/></g></g></g><g fill="#FFBD59"><g><g><path d="M 21.859375 0 L 13.484375 0 L 13.078125 -2.6875 C 12.679688 -1.707031 12.097656 -0.953125 11.328125 -0.421875 C 10.554688 0.109375 9.410156 0.375 7.890625 0.375 C 4.097656 0.375 2.203125 -1.671875 2.203125 -5.765625 L 2.203125 -16.828125 L 0.140625 -16.828125 L 0.140625 -17.484375 L 9.03125 -17.484375 L 9.03125 -4.890625 C 9.03125 -3.421875 9.132812 -2.453125 9.34375 -1.984375 C 9.550781 -1.515625 9.96875 -1.28125 10.59375 -1.28125 C 11.21875 -1.28125 11.773438 -1.660156 12.265625 -2.421875 C 12.753906 -3.179688 13 -4.234375 13 -5.578125 L 13 -16.828125 L 11.3125 -16.828125 L 11.3125 -17.484375 L 19.84375 -17.484375 L 19.84375 -0.65625 L 21.859375 -0.65625 Z M 21.859375 0" transform="translate(134.626 186.918)"/></g></g></g><g fill="#FFBD59"><g><g><path d="M 1.21875 0.375 L 1.21875 -6.203125 L 1.65625 -6.203125 C 2.289062 -4.078125 3.144531 -2.582031 4.21875 -1.71875 C 5.300781 -0.863281 6.648438 -0.4375 8.265625 -0.4375 C 10.765625 -0.4375 12.015625 -1.234375 12.015625 -2.828125 C 12.015625 -3.515625 11.707031 -4.03125 11.09375 -4.375 C 10.132812 -4.90625 8.910156 -5.320312 7.421875 -5.625 C 5.753906 -6.0625 4.359375 -6.648438 3.234375 -7.390625 C 1.890625 -8.265625 1.21875 -9.65625 1.21875 -11.5625 C 1.21875 -13.476562 1.800781 -15.003906 2.96875 -16.140625 C 4.144531 -17.285156 5.710938 -17.859375 7.671875 -17.859375 C 8.878906 -17.859375 10.117188 -17.578125 11.390625 -17.015625 C 11.847656 -16.816406 12.195312 -16.71875 12.4375 -16.71875 C 12.6875 -16.71875 12.894531 -16.800781 13.0625 -16.96875 C 13.238281 -17.144531 13.453125 -17.460938 13.703125 -17.921875 L 14.109375 -17.921875 L 14.109375 -12.3125 L 13.671875 -12.3125 C 12.421875 -15.488281 10.484375 -17.078125 7.859375 -17.078125 C 6.710938 -17.078125 5.851562 -16.875 5.28125 -16.46875 C 4.71875 -16.070312 4.4375 -15.566406 4.4375 -14.953125 C 4.4375 -14.585938 4.519531 -14.300781 4.6875 -14.09375 C 4.863281 -13.882812 5 -13.726562 5.09375 -13.625 C 5.195312 -13.53125 5.359375 -13.425781 5.578125 -13.3125 C 5.804688 -13.207031 5.992188 -13.125 6.140625 -13.0625 C 6.285156 -13 6.507812 -12.914062 6.8125 -12.8125 C 7.113281 -12.71875 7.34375 -12.660156 7.5 -12.640625 C 9.15625 -12.222656 10.351562 -11.859375 11.09375 -11.546875 C 11.832031 -11.242188 12.53125 -10.875 13.1875 -10.4375 C 14.53125 -9.5 15.203125 -7.992188 15.203125 -5.921875 C 15.203125 -3.859375 14.585938 -2.289062 13.359375 -1.21875 C 12.140625 -0.15625 10.46875 0.375 8.34375 0.375 C 6.820312 0.375 5.351562 0.015625 3.9375 -0.703125 C 3.632812 -0.890625 3.398438 -0.984375 3.234375 -0.984375 C 2.691406 -0.984375 2.164062 -0.53125 1.65625 0.375 Z M 1.21875 0.375" transform="translate(156.852 186.918)"/></g></g></g><g fill="#FFBD59"><g><g><path d="M 5.765625 -20.015625 C 4.472656 -20.015625 3.550781 -20.34375 3 -21 C 2.445312 -21.664062 2.171875 -22.488281 2.171875 -23.46875 C 2.171875 -24.445312 2.46875 -25.253906 3.0625 -25.890625 C 3.664062 -26.535156 4.578125 -26.859375 5.796875 -26.859375 C 7.023438 -26.859375 7.957031 -26.566406 8.59375 -25.984375 C 9.226562 -25.410156 9.546875 -24.59375 9.546875 -23.53125 C 9.546875 -22.46875 9.238281 -21.613281 8.625 -20.96875 C 8.019531 -20.332031 7.066406 -20.015625 5.765625 -20.015625 Z M 0.21875 -17.484375 L 9.21875 -17.484375 L 9.21875 -0.65625 L 11.28125 -0.65625 L 11.28125 0 L 0.375 0 L 0.375 -0.65625 L 2.390625 -0.65625 L 2.390625 -16.828125 L 0.21875 -16.828125 Z M 0.21875 -17.484375" transform="translate(172.796 186.918)"/></g></g></g><g fill="#FFBD59"><g><g><path d="M 10.65625 -17.1875 C 9.570312 -17.1875 8.796875 -16.597656 8.328125 -15.421875 C 7.867188 -14.253906 7.640625 -12.3125 7.640625 -9.59375 L 7.640625 -7.671875 C 7.640625 -5.253906 7.90625 -3.515625 8.4375 -2.453125 C 8.976562 -1.398438 9.972656 -0.875 11.421875 -0.875 C 12.867188 -0.875 14.019531 -1.363281 14.875 -2.34375 C 15.726562 -3.332031 16.28125 -4.445312 16.53125 -5.6875 L 17.1875 -5.625 C 16.726562 -3.519531 15.875 -2 14.625 -1.0625 C 13.34375 -0.101562 11.59375 0.375 9.375 0.375 C 6.53125 0.375 4.347656 -0.390625 2.828125 -1.921875 C 1.304688 -3.453125 0.546875 -5.691406 0.546875 -8.640625 C 0.546875 -11.597656 1.410156 -13.875 3.140625 -15.46875 C 4.867188 -17.0625 7.273438 -17.859375 10.359375 -17.859375 C 12.535156 -17.859375 14.195312 -17.429688 15.34375 -16.578125 C 16.5 -15.734375 17.078125 -14.675781 17.078125 -13.40625 C 17.078125 -12.132812 16.800781 -11.203125 16.25 -10.609375 C 15.695312 -10.023438 14.9375 -9.734375 13.96875 -9.734375 C 13.007812 -9.734375 12.234375 -9.988281 11.640625 -10.5 C 11.054688 -11.019531 10.765625 -11.78125 10.765625 -12.78125 C 10.765625 -13.21875 10.828125 -13.660156 10.953125 -14.109375 L 12.15625 -14.109375 C 12.332031 -14.597656 12.421875 -15.035156 12.421875 -15.421875 C 12.421875 -16.597656 11.832031 -17.1875 10.65625 -17.1875 Z M 10.65625 -17.1875" transform="translate(184.442 186.918)"/></g></g></g><g clip-path="url(#a)"><path fill="#FFF" d="M 74.738281 133.730469 C 74.5625 133.808594 74.398438 133.960938 74.332031 134.144531 C 74.367188 134.730469 74.433594 135.792969 74.511719 137.074219 L 74.167969 137.074219 L 73.804688 136.519531 L 73.011719 136.519531 C 72.792969 136.714844 72.601562 137.003906 72.601562 137.433594 C 72.601562 137.863281 72.792969 138.175781 73.011719 138.367188 L 73.804688 138.367188 L 74.167969 137.816406 L 74.554688 137.816406 C 74.613281 138.800781 74.675781 139.871094 74.738281 140.925781 L 74.359375 140.925781 L 73.996094 140.375 L 73.203125 140.375 C 72.984375 140.570312 72.796875 140.859375 72.796875 141.289062 C 72.796875 141.71875 72.984375 142.03125 73.203125 142.222656 L 73.996094 142.222656 L 74.359375 141.671875 L 74.785156 141.671875 C 74.851562 142.84375 74.917969 143.957031 74.972656 144.871094 L 74.65625 144.871094 L 74.292969 144.320312 L 73.5 144.320312 C 73.28125 144.511719 73.089844 144.800781 73.089844 145.230469 C 73.089844 145.664062 73.28125 145.972656 73.5 146.167969 L 74.292969 146.167969 L 74.65625 145.613281 L 75.015625 145.613281 C 75.0625 146.410156 75.09375 146.957031 75.101562 147.089844 C 75.148438 147.21875 75.191406 147.339844 75.234375 147.460938 C 75.574219 148.398438 75.832031 149.023438 75.933594 149.261719 C 75.980469 149.375 75.980469 149.378906 75.980469 149.378906 L 75.984375 149.378906 L 75.339844 185.863281 C 73.636719 185.988281 71.855469 186.246094 70.207031 186.773438 C 67.535156 187.621094 65.210938 189.171875 64.175781 191.925781 C 63.179688 194.589844 63.304688 196.660156 63.609375 198.640625 C 63.917969 200.625 64.410156 202.503906 64.175781 204.851562 C 63.8125 208.527344 62.160156 212.011719 60.597656 215.503906 C 59.03125 219 57.550781 222.515625 57.582031 226.320312 C 57.585938 226.824219 57.609375 227.335938 57.671875 227.855469 C 58.078125 231.273438 59.570312 233.789062 61.59375 235.644531 C 63.617188 237.5 66.160156 238.6875 68.640625 239.449219 C 73.609375 240.964844 78.367188 240.777344 78.367188 240.777344 C 78.367188 240.777344 83.121094 240.964844 88.089844 239.449219 C 90.570312 238.6875 93.113281 237.5 95.136719 235.644531 C 97.160156 233.789062 98.652344 231.273438 99.058594 227.855469 C 99.550781 223.714844 98.105469 219.921875 96.453125 216.191406 C 94.800781 212.460938 92.941406 208.769531 92.554688 204.851562 C 92.320312 202.503906 92.8125 200.621094 93.121094 198.640625 C 93.425781 196.660156 93.550781 194.589844 92.554688 191.925781 C 91.519531 189.171875 89.195312 187.621094 86.523438 186.773438 C 84.882812 186.25 83.105469 185.988281 81.40625 185.867188 L 80.746094 149.378906 C 80.746094 149.378906 81.054688 148.679688 81.496094 147.460938 C 81.539062 147.339844 81.582031 147.21875 81.628906 147.089844 C 81.636719 146.957031 81.667969 146.410156 81.714844 145.613281 L 82.070312 145.613281 L 82.429688 146.167969 L 83.226562 146.167969 C 83.441406 145.972656 83.632812 145.664062 83.632812 145.230469 C 83.632812 144.800781 83.441406 144.511719 83.226562 144.320312 L 82.429688 144.320312 L 82.070312 144.871094 L 81.757812 144.871094 C 81.8125 143.957031 81.878906 142.839844 81.945312 141.671875 L 82.363281 141.671875 L 82.726562 142.222656 L 83.519531 142.222656 C 83.738281 142.027344 83.929688 141.71875 83.929688 141.289062 C 83.929688 140.855469 83.738281 140.570312 83.519531 140.375 L 82.726562 140.375 L 82.363281 140.925781 L 81.992188 140.925781 C 82.054688 139.871094 82.117188 138.800781 82.175781 137.816406 L 82.558594 137.816406 L 82.921875 138.367188 L 83.714844 138.367188 C 83.933594 138.171875 84.121094 137.863281 84.121094 137.433594 C 84.121094 137 83.933594 136.714844 83.714844 136.519531 L 82.921875 136.519531 L 82.558594 137.070312 L 82.21875 137.070312 C 82.296875 135.792969 82.363281 134.730469 82.398438 134.140625 C 82.332031 133.957031 82.167969 133.808594 81.992188 133.730469 C 80.992188 133.742188 78.363281 133.730469 78.363281 133.730469 C 78.363281 133.730469 75.738281 133.742188 74.738281 133.730469 Z M 74.738281 133.730469"/></g></svg>